<svg width="43" height="40" viewBox="0 0 43 40" fill="none" xmlns="http://www.w3.org/2000/svg">
<path d="M21.0093 20.1227C21.0093 19.9872 20.8994 19.8773 20.7639 19.8773H18.1875C18.0519 19.8773 17.9421 19.9872 17.9421 20.1227V22.6994C17.9421 22.8349 18.0519 22.9448 18.1875 22.9448H20.7639C20.8994 22.9448 21.0093 22.8349 21.0093 22.6994V20.1227Z" fill="#DDDDDD"/>
<path d="M21.0093 24.1718C21.0093 24.0362 20.8994 23.9264 20.7639 23.9264H18.1875C18.0519 23.9264 17.9421 24.0362 17.9421 24.1718V26.7485C17.9421 26.884 18.0519 26.9939 18.1875 26.9939H20.7639C20.8994 26.9939 21.0093 26.884 21.0093 26.7485V24.1718Z" fill="#DDDDDD"/>
<path d="M21.9907 20.1227C21.9907 19.9872 22.1006 19.8773 22.2361 19.8773H24.8125C24.9481 19.8773 25.0579 19.9872 25.0579 20.1227V22.6994C25.0579 22.8349 24.9481 22.9448 24.8125 22.9448H22.2361C22.1006 22.9448 21.9907 22.8349 21.9907 22.6994V20.1227Z" fill="#DDDDDD"/>
<path d="M25.0579 24.1718C25.0579 24.0362 24.9481 23.9264 24.8125 23.9264H22.2361C22.1006 23.9264 21.9907 24.0362 21.9907 24.1718V26.7485C21.9907 26.884 22.1006 26.9939 22.2361 26.9939H24.8125C24.9481 26.9939 25.0579 26.884 25.0579 26.7485V24.1718Z" fill="#DDDDDD"/>
<path fill-rule="evenodd" clip-rule="evenodd" d="M21.5 0L42.75 18.4049H37.0926C37.6422 20.0429 37.9401 21.7965 37.9401 23.6196C37.9401 32.6663 30.6071 40 21.5613 40C12.5156 40 5.18264 32.6663 5.18264 23.6196C5.18264 21.7965 5.48046 20.0429 6.03009 18.4049H0.25L7.63638 12.0075V4.17178H13.5253V6.90695L21.5 0ZM12.1754 18.4049C11.3159 19.9489 10.8262 21.7271 10.8262 23.6196C10.8262 29.5491 15.6325 34.3558 21.5613 34.3558C27.4902 34.3558 32.2965 29.5491 32.2965 23.6196C32.2965 21.7271 31.8068 19.9489 30.9473 18.4049C29.114 15.1114 25.5978 12.8834 21.5613 12.8834C17.5249 12.8834 14.0087 15.1114 12.1754 18.4049Z" fill="#DDDDDD"/>
</svg>
